<?xml version="1.0" standalone="no"?>
<!DOCTYPE svg PUBLIC "-//W3C//DTD SVG 20010904//EN"
 "http://www.w3.org/TR/2001/REC-SVG-20010904/DTD/svg10.dtd">
<svg version="1.0" xmlns="http://www.w3.org/2000/svg"
 width="500.000000pt" height="500.000000pt" viewBox="0 0 500.000000 500.000000"
 preserveAspectRatio="xMidYMid meet">
<metadata>
Created by potrace 1.14, written by Peter Selinger 2001-2017
</metadata>
<g transform="translate(0.000000,500.000000) scale(0.100000,-0.100000)"
fill="#000000" stroke="none">
<path d="M0 2500 l0 -2500 2500 0 2500 0 0 2500 0 2500 -2500 0 -2500 0 0
-2500z m3729 1353 c6 -170 14 -334 17 -366 l6 -58 -46 3 -47 3 -30 89 c-67
200 -164 329 -294 391 -116 54 -176 60 -680 60 l-460 0 -3 -648 -2 -649 367 4
c398 5 421 7 504 63 77 50 127 151 153 308 l12 72 47 3 47 3 0 -560 0 -561
-45 0 c-50 0 -48 -3 -59 125 -15 170 -95 279 -235 323 -49 15 -104 17 -421 17
l-365 0 -3 -490 c-3 -487 7 -785 28 -858 33 -112 184 -187 376 -187 l74 0 0
-45 0 -45 -710 0 -710 0 0 45 0 45 78 0 c189 0 312 55 356 160 8 19 19 70 25
113 15 104 15 2502 0 2602 -12 88 -34 131 -87 172 -68 51 -143 74 -264 80
l-108 6 0 43 0 44 1233 0 1234 0 12 -307z"/>
</g>
</svg>
